<svg width="667" height="667" viewBox="0 0 667 667" fill="none" xmlns="http://www.w3.org/2000/svg">
<g clip-path="url(#clip0_2_2)">
<path d="M0 510.197H666.667V509.865H0V510.197Z" fill="#ECECEC"/>
<path d="M555.705 531.66H599.868V531.327H555.705V531.66Z" fill="#ECECEC"/>
<path d="M430.036 535.277H441.627V534.944H430.036V535.277Z" fill="#ECECEC"/>
<path d="M528.781 519.277H554.371V518.944H528.781V519.277Z" fill="#ECECEC"/>
<path d="M69.9453 521.519H127.536V521.185H69.9453V521.519Z" fill="#ECECEC"/>
<path d="M139.408 521.519H147.852V521.185H139.408V521.519Z" fill="#ECECEC"/>
<path d="M175.295 527.148H300.196V526.815H175.295V527.148Z" fill="#ECECEC"/>
<path d="M58.5534 73.6035C54.54 73.6035 51.276 76.8675 51.276 80.8808V442.789C51.276 446.802 54.54 450.066 58.5534 450.066H316.019C320.029 450.066 323.295 446.802 323.295 442.789V80.8808C323.295 76.8675 320.029 73.6035 316.019 73.6035H58.5534ZM316.019 450.399H58.5534C54.3574 450.399 50.9427 446.986 50.9427 442.789V80.8808C50.9427 76.6848 54.3574 73.2702 58.5534 73.2702H316.019C320.213 73.2702 323.628 76.6848 323.628 80.8808V442.789C323.628 446.986 320.213 450.399 316.019 450.399" fill="#ECECEC"/>
<path d="M346.949 73.6035C342.937 73.6035 339.673 76.8675 339.673 80.8808V442.789C339.673 446.802 342.937 450.066 346.949 450.066H604.415C608.427 450.066 611.692 446.802 611.692 442.789V80.8808C611.692 76.8675 608.427 73.6035 604.415 73.6035H346.949ZM604.415 450.399H346.949C342.753 450.399 339.34 446.986 339.34 442.789V80.8808C339.34 76.6848 342.753 73.2702 346.949 73.2702H604.415C608.611 73.2702 612.025 76.6848 612.025 80.8808V442.789C612.025 446.986 608.611 450.399 604.415 450.399" fill="#ECECEC"/>
<path d="M386.255 232.077H569.963V111.775H386.255V232.077Z" fill="#E7E7E7"/>
<path d="M380.649 232.077H567.344V111.775H380.649V232.077Z" fill="#F0F0F0"/>
<path d="M386.255 232.077H569.963V255.688H386.255V232.077Z" fill="#E7E7E7"/>
<path d="M371.311 232.077H558.005V255.688H371.311V232.077Z" fill="#F0F0F0"/>
<path d="M559.496 119.623H388.497V224.231H559.496V119.623Z" fill="#FAFAFA"/>
<path d="M520.936 224.232L499.095 119.624H465.014L486.855 224.232H520.936Z" fill="white"/>
<path d="M555.862 216.421C556.172 216.421 556.422 216.17 556.422 215.861V124.729C556.422 124.419 556.172 124.169 555.862 124.169C555.553 124.169 555.302 124.419 555.302 124.729V215.861C555.302 216.17 555.553 216.421 555.862 216.421Z" fill="#F0F0F0"/>
<path d="M479.534 224.232L457.692 119.624H444.406L466.247 224.232H479.534Z" fill="white"/>
<path d="M389.493 119.623H388.497V224.231H389.493V119.623Z" fill="#E7E7E7"/>
<g opacity="0.600006">
<g opacity="0.600006">
<path opacity="0.600006" d="M378.793 131.455H562.501L563.224 122.674H379.516L378.793 131.455Z" fill="#ECECEC"/>
</g>
</g>
<g opacity="0.600006">
<g opacity="0.600006">
<path opacity="0.600006" d="M378.793 145.858H562.501L563.224 137.076H379.516L378.793 145.858Z" fill="#ECECEC"/>
</g>
</g>
<g opacity="0.600006">
<g opacity="0.600006">
<path opacity="0.600006" d="M378.793 160.26H562.501L563.224 151.479H379.516L378.793 160.26Z" fill="#ECECEC"/>
</g>
</g>
<g opacity="0.600006">
<g opacity="0.600006">
<path opacity="0.600006" d="M378.793 174.663H562.501L563.224 165.882H379.516L378.793 174.663Z" fill="#ECECEC"/>
</g>
</g>
<g opacity="0.600006">
<g opacity="0.600006">
<path opacity="0.600006" d="M378.793 189.066H562.501L563.224 180.284H379.516L378.793 189.066Z" fill="#ECECEC"/>
</g>
</g>
<g opacity="0.600006">
<g opacity="0.600006">
<path opacity="0.600006" d="M378.793 203.468H562.501L563.224 194.687H379.516L378.793 203.468Z" fill="#ECECEC"/>
</g>
</g>
<path d="M543.584 429.969H505.065V422.375H543.584V429.969Z" fill="#E7E7E7"/>
<path d="M432.411 509.864H439.521V335.111H432.411V509.864Z" fill="#E7E7E7"/>
<path d="M407.781 429.969H505.065V422.375H407.781V429.969Z" fill="#F5F5F5"/>
<path d="M543.584 471.525H505.065V463.931H543.584V471.525Z" fill="#E7E7E7"/>
<path d="M407.781 471.525H505.065V463.931H407.781V471.525Z" fill="#F5F5F5"/>
<path d="M543.584 346.859H505.065V339.264H543.584V346.859Z" fill="#E7E7E7"/>
<path d="M407.781 346.859H505.065V339.264H407.781V346.859Z" fill="#F5F5F5"/>
<path d="M543.584 388.413H505.065V380.819H543.584V388.413Z" fill="#E7E7E7"/>
<path d="M407.781 388.413H505.065V380.819H407.781V388.413Z" fill="#F5F5F5"/>
<path d="M529.695 509.864H536.805V335.111H529.695V509.864Z" fill="#E7E7E7"/>
<path d="M497.955 509.864H505.065V335.111H497.955V509.864Z" fill="#F5F5F5"/>
<path d="M407.781 509.864H414.892V335.111H407.781V509.864Z" fill="#F5F5F5"/>
<path d="M87.1653 509.865H159.936V368.676H87.1653V509.865Z" fill="#E7E7E7"/>
<path d="M106.597 509.866H87.165V490.375H126.972L106.597 509.866Z" fill="#FAFAFA"/>
<path d="M285.579 509.865H358.349V368.676H285.579V509.865Z" fill="#E7E7E7"/>
<path d="M87.1653 503.157H302.537V368.676H87.1653V503.157Z" fill="#FAFAFA"/>
<path d="M283.105 509.866H302.537V490.375H262.73L283.105 509.866Z" fill="#FAFAFA"/>
<path d="M102.24 452.443H287.463V418.788H102.24V452.443Z" fill="#F0F0F0"/>
<path d="M102.24 493.289H287.463V459.635H102.24V493.289Z" fill="#F0F0F0"/>
<path d="M137.445 422.386H252.256C255.627 422.386 258.359 419.654 258.359 416.285V415.873H131.344V416.285C131.344 419.654 134.076 422.386 137.445 422.386Z" fill="#FAFAFA"/>
<path d="M102.24 411.595H287.463V377.94H102.24V411.595Z" fill="#F0F0F0"/>
<path d="M137.445 381.538H252.256C255.627 381.538 258.359 378.806 258.359 375.437V375.025H131.344V375.437C131.344 378.806 134.076 381.538 137.445 381.538Z" fill="#FAFAFA"/>
<path d="M137.445 463.234H252.256C255.627 463.234 258.359 460.502 258.359 457.132V456.72H131.344V457.132C131.344 460.502 134.076 463.234 137.445 463.234Z" fill="#FAFAFA"/>
<path d="M98.7573 232.077H282.465V111.775H98.7573V232.077Z" fill="#E7E7E7"/>
<path d="M93.152 232.077H279.845V111.775H93.152V232.077Z" fill="#F0F0F0"/>
<path d="M98.7573 232.077H282.465V255.688H98.7573V232.077Z" fill="#E7E7E7"/>
<path d="M83.8147 232.077H270.509V255.688H83.8147V232.077Z" fill="#F0F0F0"/>
<path d="M271.999 119.623H101V224.231H271.999V119.623Z" fill="#FAFAFA"/>
<path d="M233.44 224.232L211.598 119.624H177.517L199.358 224.232H233.44Z" fill="white"/>
<path d="M268.366 216.421C268.675 216.421 268.926 216.17 268.926 215.861V124.729C268.926 124.419 268.675 124.169 268.366 124.169C268.056 124.169 267.806 124.419 267.806 124.729V215.861C267.806 216.17 268.056 216.421 268.366 216.421Z" fill="#F0F0F0"/>
<path d="M192.037 224.232L170.196 119.624H156.909L178.75 224.232H192.037Z" fill="white"/>
<path d="M101.996 119.623H101V224.231H101.996V119.623Z" fill="#E7E7E7"/>
<g opacity="0.600006">
<g opacity="0.600006">
<path opacity="0.600006" d="M91.2964 131.455H275.004L275.727 122.674H92.0191L91.2964 131.455Z" fill="#ECECEC"/>
</g>
</g>
<g opacity="0.600006">
<g opacity="0.600006">
<path opacity="0.600006" d="M91.2964 136.409H275.004L275.727 127.627H92.0191L91.2964 136.409Z" fill="#ECECEC"/>
</g>
</g>
<g opacity="0.600006">
<g opacity="0.600006">
<path opacity="0.600006" d="M91.2964 141.363H275.004L275.727 132.582H92.0191L91.2964 141.363Z" fill="#ECECEC"/>
</g>
</g>
<g opacity="0.600006">
<g opacity="0.600006">
<path opacity="0.600006" d="M91.2964 146.317H275.004L275.727 137.535H92.0191L91.2964 146.317Z" fill="#ECECEC"/>
</g>
</g>
<g opacity="0.600006">
<g opacity="0.600006">
<path opacity="0.600006" d="M91.2964 151.271H275.004L275.727 142.489H92.0191L91.2964 151.271Z" fill="#ECECEC"/>
</g>
</g>
<g opacity="0.600006">
<g opacity="0.600006">
<path opacity="0.600006" d="M91.2964 156.225H275.004L275.727 147.443H92.0191L91.2964 156.225Z" fill="#ECECEC"/>
</g>
</g>
<path d="M128.017 364.361H134.368V293.572H128.017V364.361Z" fill="#F5F5F5"/>
<path d="M128.836 364.312H130.629V293.523H128.836V364.312Z" fill="#FAFAFA"/>
<path d="M131.381 364.312H132.084V293.523H131.381V364.312Z" fill="#FAFAFA"/>
<path d="M107.684 368.676H154.703C154.703 365.404 152.051 362.752 148.779 362.752H113.608C110.336 362.752 107.684 365.404 107.684 368.676Z" fill="#F0F0F0"/>
<path d="M119.78 337.518C120.785 337.518 121.607 336.695 121.607 335.691V289.278C121.607 288.274 120.785 287.451 119.78 287.451C118.775 287.451 117.953 288.274 117.953 289.278V335.691C117.953 336.695 118.775 337.518 119.78 337.518Z" fill="#F0F0F0"/>
<path d="M102.765 310.398H159.622L153.081 270.666H109.305L102.765 310.398Z" fill="#E1E1E1"/>
<path d="M320.624 169.464C384.757 176.634 412.912 121.036 476.467 128.317C533.192 134.816 572.301 175.229 559.064 229.658C547.313 277.973 491.324 293.14 471.416 338.401C450.313 386.381 433.944 438.125 370.213 454.826C245.073 487.624 184.291 333.649 175.776 245.213C172.508 211.266 166.804 130.11 211.116 119.594C255.716 109.009 281.284 165.065 320.624 169.464Z" fill="#007CFF"/>
<g opacity="0.899994">
<g opacity="0.899994">
<path opacity="0.899994" d="M320.624 169.464C384.757 176.634 412.912 121.036 476.467 128.317C533.192 134.816 572.301 175.229 559.064 229.658C547.313 277.973 491.324 293.14 471.416 338.401C450.313 386.381 433.944 438.125 370.213 454.826C245.073 487.624 184.291 333.649 175.776 245.213C172.508 211.266 166.804 130.11 211.116 119.594C255.716 109.009 281.284 165.065 320.624 169.464Z" fill="white"/>
</g>
</g>
<path d="M591.853 554.984C591.853 563.323 476.11 570.081 333.334 570.081C190.558 570.081 74.8152 563.323 74.8152 554.984C74.8152 546.647 190.558 539.887 333.334 539.887C476.11 539.887 591.853 546.647 591.853 554.984Z" fill="#F5F5F5"/>
<path d="M139.264 294.497L137.493 269.908L138.822 269.813L140.594 294.401L139.264 294.497Z" fill="#007CFF"/>
<path d="M140.844 316.444L140.177 307.195L141.508 307.099L142.175 316.348L140.844 316.444Z" fill="#007CFF"/>
<path d="M450.281 420.215H164.737C158.28 420.215 152.615 414.931 152.149 408.472L138.12 213.632C137.655 207.175 142.559 201.891 149.016 201.891H434.56C441.019 201.891 446.683 207.175 447.148 213.632L461.179 408.472C461.644 414.931 456.74 420.215 450.281 420.215Z" fill="#007CFF"/>
<path d="M451.376 420.215H165.832C159.375 420.215 153.709 414.931 153.244 408.472L139.215 213.632C138.749 207.175 143.653 201.891 150.111 201.891H435.655C442.113 201.891 447.777 207.175 448.243 213.632L462.273 408.472C462.739 414.931 457.835 420.215 451.376 420.215Z" fill="#007CFF"/>
<g opacity="0.5">
<g opacity="0.5">
<path opacity="0.5" d="M451.376 420.215H165.832C159.375 420.215 153.709 414.931 153.244 408.472L139.215 213.632C138.749 207.175 143.653 201.891 150.111 201.891H435.655C442.113 201.891 447.777 207.175 448.243 213.632L462.273 408.472C462.739 414.931 457.835 420.215 451.376 420.215Z" fill="white"/>
</g>
</g>
<path d="M436.077 207.761H150.533C150.211 207.761 149.892 207.775 149.577 207.8C142.277 208.401 143.769 219.504 151.136 219.504H437.167C444.533 219.504 444.425 208.401 437.04 207.8C436.721 207.775 436.4 207.761 436.077 207.761Z" fill="#007CFF"/>
<path d="M157.971 213.633C158.077 215.119 156.959 216.325 155.472 216.325C153.985 216.325 152.693 215.119 152.587 213.633C152.48 212.146 153.599 210.941 155.085 210.941C156.572 210.941 157.864 212.146 157.971 213.633Z" fill="#FAFAFA"/>
<path d="M167.128 213.633C167.234 215.119 166.116 216.325 164.629 216.325C163.142 216.325 161.85 215.119 161.744 213.633C161.637 212.146 162.754 210.941 164.242 210.941C165.729 210.941 167.021 212.146 167.128 213.633Z" fill="#FAFAFA"/>
<path d="M176.285 213.633C176.392 215.119 175.273 216.325 173.786 216.325C172.3 216.325 171.008 215.119 170.901 213.633C170.794 212.146 171.912 210.941 173.4 210.941C174.886 210.941 176.178 212.146 176.285 213.633Z" fill="#FAFAFA"/>
<path d="M443.806 400.769H170.602C168.251 400.769 166.207 398.863 166.038 396.511L154.5 236.282C154.331 233.93 156.1 232.025 158.451 232.025H431.655C434.006 232.025 436.048 233.93 436.218 236.282L447.756 396.511C447.926 398.863 446.156 400.769 443.806 400.769Z" fill="white"/>
<path d="M328.706 339.731L324.26 277.972L310.784 269.86H273.71L278.742 339.731H328.706Z" fill="white"/>
<path d="M279.344 339.085H328.012L323.638 278.353L310.604 270.507H274.405L279.344 339.085ZM328.706 340.377H278.742C278.404 340.377 278.122 340.115 278.098 339.778L273.066 269.907C273.054 269.729 273.116 269.551 273.238 269.421C273.361 269.289 273.532 269.214 273.712 269.214H310.784C310.901 269.214 311.016 269.247 311.117 269.307L324.593 277.418C324.773 277.527 324.889 277.717 324.904 277.926L329.352 339.685C329.364 339.863 329.302 340.039 329.18 340.171C329.057 340.302 328.886 340.377 328.706 340.377" fill="#007CFF"/>
<path d="M324.259 277.972L310.783 269.861L315.731 280.607L324.259 277.972Z" fill="#ECECEC"/>
<path d="M312.247 271.496L316.081 279.821L322.689 277.781L312.247 271.496ZM315.731 281.252C315.485 281.252 315.251 281.111 315.143 280.876L310.197 270.131C310.078 269.873 310.141 269.568 310.353 269.379C310.563 269.191 310.874 269.161 311.117 269.307L324.593 277.419C324.81 277.549 324.931 277.797 324.901 278.051C324.87 278.303 324.693 278.513 324.45 278.589L315.922 281.224C315.858 281.243 315.794 281.252 315.731 281.252Z" fill="#007CFF"/>
<path d="M294.626 301.341C294.738 302.899 293.566 304.163 292.006 304.163C290.447 304.163 289.092 302.899 288.98 301.341C288.868 299.782 290.04 298.518 291.6 298.518C293.159 298.518 294.514 299.782 294.626 301.341Z" fill="#007CFF"/>
<path d="M312.94 301.341C313.052 302.899 311.88 304.163 310.32 304.163C308.761 304.163 307.406 302.899 307.294 301.341C307.182 299.782 308.354 298.518 309.914 298.518C311.473 298.518 312.828 299.782 312.94 301.341Z" fill="#007CFF"/>
<path d="M318.106 319.647C317.77 319.647 317.487 319.387 317.462 319.047C317.135 314.508 310.018 310.816 301.595 310.816C296.015 310.816 291.006 312.476 288.521 315.147C287.415 316.333 286.905 317.615 287.001 318.953C287.026 319.311 286.759 319.619 286.403 319.645C286.046 319.667 285.738 319.403 285.711 319.047C285.59 317.36 286.234 315.707 287.575 314.267C290.297 311.341 295.669 309.524 301.595 309.524C310.834 309.524 318.37 313.667 318.751 318.953C318.777 319.311 318.509 319.619 318.153 319.645C318.137 319.647 318.122 319.647 318.106 319.647Z" fill="#007CFF"/>
<path d="M284.223 295.622C284.066 295.622 283.908 295.565 283.783 295.45C283.522 295.206 283.507 294.798 283.75 294.537L286.58 291.486C286.824 291.223 287.234 291.21 287.494 291.451C287.755 291.694 287.771 292.103 287.528 292.365L284.696 295.415C284.57 295.553 284.396 295.622 284.223 295.622Z" fill="#007CFF"/>
<path d="M316.779 295.622C316.622 295.622 316.463 295.565 316.338 295.449L313.067 292.398C312.807 292.154 312.792 291.746 313.036 291.485C313.279 291.223 313.687 291.209 313.948 291.453L317.22 294.503C317.48 294.747 317.495 295.155 317.251 295.417C317.124 295.553 316.952 295.622 316.779 295.622Z" fill="#007CFF"/>
<path d="M269.676 353.537H272.689L277.037 359.315L276.621 353.537H279.664L280.416 363.981H277.373L273.049 358.246L273.463 363.981H270.428L269.676 353.537Z" fill="#007CFF"/>
<path d="M285.007 358.78C285.083 359.835 285.333 360.592 285.759 361.052C286.183 361.514 286.733 361.744 287.407 361.744C288.1 361.744 288.621 361.518 288.968 361.067C289.316 360.615 289.448 359.806 289.364 358.638C289.292 357.655 289.043 356.936 288.613 356.483C288.184 356.03 287.629 355.803 286.951 355.803C286.3 355.803 285.795 356.032 285.433 356.494C285.072 356.954 284.931 357.716 285.007 358.78ZM281.779 358.766C281.656 357.06 282.035 355.734 282.916 354.783C283.799 353.834 285.087 353.359 286.781 353.359C288.52 353.359 289.893 353.826 290.9 354.759C291.908 355.692 292.472 356.999 292.593 358.68C292.681 359.902 292.548 360.902 292.193 361.683C291.839 362.464 291.289 363.072 290.544 363.507C289.799 363.942 288.847 364.159 287.688 364.159C286.511 364.159 285.521 363.971 284.723 363.596C283.924 363.22 283.256 362.627 282.717 361.815C282.18 361.003 281.867 359.987 281.779 358.766" fill="#007CFF"/>
<path d="M302.267 355.902L302.678 361.609H303.469C304.143 361.609 304.618 361.534 304.891 361.383C305.166 361.234 305.37 360.973 305.505 360.601C305.639 360.227 305.677 359.623 305.617 358.787C305.537 357.681 305.302 356.923 304.911 356.514C304.521 356.106 303.909 355.902 303.073 355.902H302.267ZM298.87 353.537H303.665C304.61 353.537 305.382 353.665 305.982 353.922C306.582 354.178 307.09 354.546 307.505 355.026C307.919 355.506 308.234 356.063 308.451 356.699C308.669 357.337 308.802 358.011 308.854 358.723C308.934 359.839 308.869 360.705 308.659 361.319C308.45 361.935 308.134 362.45 307.713 362.866C307.291 363.281 306.827 363.558 306.319 363.695C305.625 363.886 304.991 363.981 304.417 363.981H299.622L298.87 353.537Z" fill="#007CFF"/>
<path d="M315.765 359.998L314.343 356.244L313.472 359.998H315.765ZM316.597 362.257H312.933L312.548 363.981H309.253L312.427 353.537H315.947L320.623 363.981H317.244L316.597 362.257Z" fill="#007CFF"/>
<path d="M319.159 353.537H328.968L329.153 356.115H325.863L326.429 363.981H323.201L322.636 356.115H319.344L319.159 353.537Z" fill="#007CFF"/>
<path d="M335.655 359.998L334.232 356.244L333.362 359.998H335.655ZM336.487 362.257H332.823L332.438 363.981H329.143L332.316 353.537H335.836L340.512 363.981H337.134L336.487 362.257Z" fill="#007CFF"/>
<path d="M471.584 230.773C472.776 230.176 474.196 229.404 475.509 228.683C476.847 227.948 478.177 227.181 479.488 226.384C482.1 224.776 484.732 223.187 487.232 221.421C492.275 217.947 496.999 214.093 501.249 209.884C501.805 209.375 502.279 208.809 502.795 208.272L503.555 207.455L503.936 207.048L504.127 206.843C504.176 206.789 504.165 206.801 504.14 206.832L504.099 206.897C503.908 207.252 504.067 207.145 504.14 206.801C504.229 206.471 504.304 205.931 504.328 205.347C504.413 202.925 503.935 199.873 503.356 196.923C502.168 190.941 500.372 184.792 498.595 178.765L503.776 176.493C507.02 182.288 509.725 188.207 511.925 194.624C512.973 197.873 513.937 201.137 514.217 205.148C514.269 206.169 514.292 207.243 514.107 208.496C513.912 209.727 513.6 211.201 512.476 212.873L512.255 213.181L512.083 213.405L511.877 213.656L511.467 214.155L510.643 215.155C510.087 215.812 509.56 216.508 508.969 217.124C504.371 222.229 499.256 226.739 493.796 230.66C491.08 232.645 488.303 234.531 485.419 236.247C483.983 237.116 482.528 237.951 481.049 238.76C479.552 239.593 478.128 240.317 476.427 241.115L471.584 230.773Z" fill="#FFB670"/>
<path d="M461.925 543.46C459.981 543.848 458.518 543.78 457.953 543.265C457.713 543.045 457.624 542.737 457.682 542.324C457.713 542.101 457.817 542.028 457.902 541.989C458.588 541.68 460.542 542.624 461.925 543.46ZM459.725 544.237C460.757 544.237 461.885 544.025 462.674 543.837C462.777 543.813 462.856 543.731 462.873 543.627C462.892 543.523 462.846 543.417 462.758 543.36C462.376 543.108 458.985 540.919 457.685 541.507C457.48 541.6 457.221 541.804 457.158 542.251C457.076 542.841 457.222 543.315 457.597 543.656C458.073 544.091 458.866 544.237 459.725 544.237" fill="#007CFF"/>
<path d="M460.713 539.318C460.93 539.318 461.122 539.394 461.298 539.55C462.022 540.191 462.271 541.996 462.333 543.067C461.27 542.219 460.003 540.408 460.157 539.642C460.182 539.516 460.254 539.367 460.593 539.326C460.634 539.32 460.674 539.318 460.713 539.318ZM462.613 543.846C462.659 543.846 462.705 543.832 462.746 543.808C462.827 543.762 462.878 543.675 462.878 543.58C462.878 543.444 462.862 540.228 461.649 539.154C461.326 538.868 460.95 538.748 460.529 538.8C459.866 538.88 459.686 539.296 459.638 539.538C459.386 540.796 461.417 543.207 462.482 543.811C462.523 543.834 462.567 543.846 462.613 543.846Z" fill="#007CFF"/>
<path d="M461.631 197.422C460.332 204.049 457.594 217.472 462.231 221.894C462.231 221.894 460.419 228.617 448.104 228.617C434.564 228.617 441.634 221.894 441.634 221.894C449.024 220.13 448.834 214.648 447.546 209.498L461.631 197.422Z" fill="#FFB670"/>
<path d="M439.046 224.566C436.92 224.854 438.728 219.347 439.592 218.778C441.587 217.459 467.394 215.591 467.226 218.723C467.119 220.071 466.486 222.702 465.358 223.595C464.228 224.488 457.599 221.788 439.046 224.566Z" fill="#1A2E35"/>
<path d="M443.25 222.712C441.562 223.283 441.722 217.735 442.296 217.067C443.627 215.523 464.515 210.156 465.136 213.193C465.375 214.504 465.49 217.123 464.772 218.139C464.056 219.155 457.919 217.473 443.25 222.712Z" fill="#1A2E35"/>
<path d="M435.481 185.477C435.317 185.486 435.151 185.421 435.039 185.284C433.546 183.457 431.605 183.644 431.586 183.646C431.291 183.677 431.034 183.468 431.003 183.177C430.971 182.888 431.182 182.626 431.473 182.594C431.574 182.584 434.006 182.348 435.859 184.614C436.043 184.84 436.01 185.173 435.783 185.358C435.694 185.432 435.587 185.47 435.481 185.477Z" fill="#1A2E35"/>
<path d="M432.897 192.001C432.897 192.001 431.755 196.011 430.263 198.037C431.555 199.025 433.518 198.323 433.518 198.323L432.897 192.001Z" fill="#FF5551"/>
<path d="M433.547 190.382C433.635 191.278 433.231 192.051 432.646 192.11C432.059 192.167 431.513 191.487 431.425 190.591C431.337 189.694 431.741 188.921 432.326 188.863C432.913 188.806 433.459 189.486 433.547 190.382Z" fill="#1A2E35"/>
<path d="M432.59 188.887L430.375 188.478C430.375 188.478 431.646 190.051 432.59 188.887Z" fill="#1A2E35"/>
<path d="M475.6 543.58H464.432L465.308 517.716H476.476L475.6 543.58Z" fill="#FFB670"/>
<path d="M463.548 542.287H476.094C476.552 542.287 476.922 542.605 476.986 543.05L478.416 552.978C478.564 554.007 477.678 554.982 476.625 554.963C472.25 554.887 470.142 554.631 464.625 554.631C461.23 554.631 456.27 554.983 451.584 554.983C446.998 554.983 446.645 550.349 448.597 549.929C457.35 548.046 458.732 545.45 461.681 542.974C462.213 542.527 462.88 542.287 463.548 542.287Z" fill="#1A2E35"/>
<g opacity="0.199997">
<g opacity="0.199997">
<path opacity="0.199997" d="M476.479 517.724H465.306L464.86 531.056H476.032L476.479 517.724Z" fill="black"/>
</g>
</g>
<path d="M431.165 237.392C424.254 234.687 417.662 231.744 411.098 228.387C404.545 225.032 398.093 221.461 391.893 216.688C390.349 215.473 388.822 214.145 387.33 212.595C386.958 212.195 386.586 211.824 386.221 211.365C385.837 210.883 385.547 210.599 385.05 209.857C384.147 208.561 383.451 206.821 383.265 205.045C383.09 203.268 383.409 201.571 383.919 200.219C384.43 198.841 385.098 197.717 385.795 196.741C387.197 194.789 388.75 193.347 390.314 192.048C393.439 189.463 396.742 187.583 400.053 185.827C401.706 184.948 403.39 184.157 405.098 183.429C406.811 182.689 408.486 182.003 410.305 181.376L412.673 186.513C406.857 190.179 400.831 194.207 396.403 198.725C395.329 199.844 394.387 201.015 393.794 202.045C393.159 203.095 393.167 203.881 393.275 203.82C393.33 203.819 393.309 203.796 393.463 203.949L393.994 204.52C394.194 204.757 394.475 205.003 394.727 205.247C395.774 206.225 397.001 207.205 398.326 208.139C400.973 210.023 403.889 211.785 406.905 213.432C409.91 215.101 413.001 216.699 416.151 218.213C422.434 221.223 428.949 224.119 435.339 226.764L431.165 237.392Z" fill="#FFB670"/>
<path d="M415.959 182.872L417.805 178.866L409.411 175.952C409.411 175.952 406.796 183.821 409.912 187.453C412.565 187.03 414.833 185.312 415.959 182.872Z" fill="#FFB670"/>
<path d="M417.806 170.208L411.095 168.273L409.411 175.952L417.806 178.866V170.208Z" fill="#FFB670"/>
<path d="M504.466 179.255L505.445 169.895L496.794 171.928C496.794 171.928 496.666 180.701 501.243 182.1L504.466 179.255Z" fill="#FFB670"/>
<path d="M501.277 163.343L495.641 165.975L496.793 171.928L505.444 169.895L501.277 163.343Z" fill="#FFB670"/>
<path d="M463.387 184.339C463.794 195.417 464.203 200.095 459.198 206.294C451.669 215.617 437.975 213.695 434.267 202.963C430.93 193.303 430.825 176.811 441.171 171.37C451.365 166.009 462.981 173.262 463.387 184.339Z" fill="#FFB670"/>
<path d="M458.562 206.274C469.435 201.575 476.587 191.667 473.568 176.175C470.679 161.354 460.674 159.888 456.54 162.964C452.407 166.039 442.104 161.456 435.922 166.659C425.21 175.674 435.338 185.392 440.612 191.151C443.763 197.628 447.891 210.884 458.562 206.274Z" fill="#1A2E35"/>
<path d="M454.046 173.515C457.715 178.829 464.753 180.329 469.766 176.866C474.779 173.405 475.869 166.291 472.199 160.978C468.53 155.666 461.491 154.165 456.479 157.627C451.466 161.089 450.377 168.202 454.046 173.515Z" fill="#007CFF"/>
<path d="M456.87 164.003C455.3 155.072 463.751 148.185 475.051 151.513C486.35 154.841 480.374 164.859 478.056 172.859C475.739 180.859 481.82 188.477 484.362 182.385C486.903 176.293 482.631 174.412 482.631 174.412C482.631 174.412 494.63 177.523 483.483 191.049C472.338 204.575 462.247 189.64 464.975 180.825C467.18 173.701 458.354 172.445 456.87 164.003Z" fill="#1A2E35"/>
<path d="M445.576 167.377C440.417 164.685 431.681 162.511 426.709 170.875C424.359 174.831 425.269 180.193 425.269 180.193L440.455 181.204L445.576 167.377Z" fill="#1A2E35"/>
<path d="M423.483 177.57C423.476 177.57 423.469 177.57 423.461 177.57C423.277 177.558 423.139 177.399 423.149 177.217C423.164 176.989 423.531 171.625 426.768 168.261C434.593 160.13 443.768 166.874 446.393 169.135C446.533 169.255 446.548 169.466 446.428 169.605C446.308 169.745 446.097 169.759 445.959 169.641C443.445 167.477 434.668 161.014 427.249 168.723C424.183 171.909 423.819 177.205 423.815 177.258C423.804 177.434 423.657 177.57 423.483 177.57Z" fill="#1A2E35"/>
<path d="M442.47 190.711C442.454 192.869 441.487 194.982 440.263 196.414C438.421 198.569 436.309 197.507 435.823 195.118C435.387 192.967 435.821 189.255 438.149 187.954C440.443 186.671 442.489 188.245 442.47 190.711Z" fill="#FFB670"/>
<path d="M440.071 292.162C440.071 292.162 440.783 369.688 447.508 412.889C452.94 447.782 462.992 528.473 462.992 528.473H478.223C478.223 528.473 479.71 450.574 476.954 416.064C469.976 328.733 487.982 312.406 473.451 292.162H440.071Z" fill="#1A2E35"/>
<g opacity="0.100006">
<g opacity="0.100006">
<path opacity="0.100006" d="M440.071 292.162C440.071 292.162 440.783 369.688 447.508 412.889C452.94 447.782 462.992 528.473 462.992 528.473H478.223C478.223 528.473 479.71 450.574 476.954 416.064C469.976 328.733 487.982 312.406 473.451 292.162H440.071Z" fill="white"/>
</g>
</g>
<g opacity="0.300003">
<g opacity="0.300003">
<path opacity="0.300003" d="M448.076 327.333C453.422 350.733 449.156 387.587 446.236 403.813C443.142 379.173 441.582 347.24 440.809 323.84C443.569 319.36 446.182 319.067 448.076 327.333Z" fill="black"/>
</g>
</g>
<path d="M460.909 528.776H480.306L481.326 521.97L460.798 521.276L460.909 528.776Z" fill="#007CFF"/>
<path d="M466.444 226.722C468.268 223.094 478.078 220.812 483.439 220.82L487.452 238.64C487.452 238.64 476.77 254.493 472.328 252.812C467.08 250.829 462.535 234.496 466.444 226.722Z" fill="#007CFF"/>
<g opacity="0.399994">
<g opacity="0.399994">
<path opacity="0.399994" d="M466.444 226.722C468.268 223.094 478.078 220.812 483.439 220.82L487.452 238.64C487.452 238.64 476.77 254.493 472.328 252.812C467.08 250.829 462.535 234.496 466.444 226.722Z" fill="black"/>
</g>
</g>
<path d="M449.216 526.467C449.672 525.719 452.224 525.029 454.172 524.671C452.414 526.46 450.864 527.455 449.959 527.361C449.642 527.328 449.398 527.163 449.214 526.856C449.143 526.736 449.134 526.633 449.187 526.521C449.195 526.503 449.206 526.484 449.216 526.467ZM455.136 524.417C455.186 524.339 455.19 524.239 455.144 524.155C455.092 524.056 454.983 524 454.872 524.017C454.311 524.101 449.375 524.885 448.708 526.295C448.58 526.568 448.598 526.856 448.76 527.127C449.032 527.581 449.416 527.837 449.904 527.888C451.522 528.055 453.858 525.811 455.106 524.459C455.118 524.445 455.128 524.432 455.136 524.417" fill="#007CFF"/>
<path d="M449.917 522.739C449.958 522.669 450.025 522.591 450.128 522.499C450.428 522.229 450.777 522.112 451.193 522.14C452.392 522.217 453.752 523.457 454.372 524.088C452.79 524.221 450.23 523.741 449.884 523.055C449.862 523.013 449.812 522.912 449.917 522.739ZM455.137 524.417C455.148 524.4 455.156 524.383 455.162 524.364C455.192 524.276 455.173 524.177 455.112 524.107C455.029 524.009 453.05 521.731 451.228 521.612C450.67 521.575 450.181 521.741 449.774 522.104C449.226 522.595 449.274 523.021 449.41 523.293C449.989 524.437 453.536 524.836 454.965 524.539C455.037 524.523 455.1 524.479 455.137 524.417" fill="#007CFF"/>
<path d="M466.778 519.687L456.563 524.224L452.011 514.751L446.063 502.345L445.366 500.903L455.568 496.359L456.358 497.981L462.124 509.995L466.778 519.687Z" fill="#FFB670"/>
<g opacity="0.199997">
<g opacity="0.199997">
<path opacity="0.199997" d="M462.124 509.995L452.01 514.751L446.062 502.345L456.357 497.982L462.124 509.995Z" fill="black"/>
</g>
</g>
<path d="M428.093 292.162C428.093 292.162 395.461 373.276 404.306 411.472C412.299 445.992 447.645 511.366 447.645 511.366L461.31 504.506C461.31 504.506 439.459 425.589 437.089 408.444C432.478 375.086 462.123 328 462.123 292.162H428.093Z" fill="#1A2E35"/>
<g opacity="0.100006">
<g opacity="0.100006">
<path opacity="0.100006" d="M428.093 292.162C428.093 292.162 395.461 373.276 404.306 411.472C412.299 445.992 447.645 511.366 447.645 511.366L461.31 504.506C461.31 504.506 439.459 425.589 437.089 408.444C432.478 375.086 462.123 328 462.123 292.162H428.093Z" fill="white"/>
</g>
</g>
<path d="M454.74 522.804L464.885 515.42C465.253 515.152 465.74 515.19 466.055 515.512L473.052 522.698C473.777 523.443 473.635 524.752 472.773 525.358C469.192 527.871 467.336 528.903 462.875 532.151C460.131 534.148 454.661 538.566 450.871 541.324C447.164 544.022 444.151 540.482 445.481 538.994C451.451 532.322 452.708 528.195 453.635 524.458C453.801 523.784 454.2 523.198 454.74 522.804Z" fill="#1A2E35"/>
<path d="M446.765 514.258L464.405 506.19L462.141 499.001L443.251 507.618L446.765 514.258Z" fill="#007CFF"/>
<path d="M436.751 225.813C435.287 222.025 422.542 217.871 416.149 216.42L413.338 237.444C413.338 237.444 423.781 252.452 428.365 251.209C433.779 249.744 439.887 233.929 436.751 225.813Z" fill="#007CFF"/>
<g opacity="0.399994">
<g opacity="0.399994">
<path opacity="0.399994" d="M436.751 225.813C435.287 222.025 422.542 217.871 416.149 216.42L413.338 237.444C413.338 237.444 423.781 252.452 428.365 251.209C433.779 249.744 439.887 233.929 436.751 225.813Z" fill="black"/>
</g>
</g>
<path d="M422.755 224.756C422.755 224.756 417.435 226.63 428.093 292.162H473.451C472.69 273.701 472.669 262.318 481.493 224.432C481.493 224.432 471.989 222.365 462.231 221.894C454.598 221.526 448.345 221.282 441.634 221.894C432.787 222.702 422.755 224.756 422.755 224.756Z" fill="#007CFF"/>
<g opacity="0.399994">
<g opacity="0.399994">
<path opacity="0.399994" d="M422.755 224.756C422.755 224.756 417.435 226.63 428.093 292.162H473.451C472.69 273.701 472.669 262.318 481.493 224.432C481.493 224.432 471.989 222.365 462.231 221.894C454.598 221.526 448.345 221.282 441.634 221.894C432.787 222.702 422.755 224.756 422.755 224.756Z" fill="black"/>
</g>
</g>
<path d="M474.131 289.501L476.176 293.561C476.335 293.875 475.961 294.197 475.437 294.197H427.868C427.459 294.197 427.12 293.997 427.095 293.739L426.685 289.679C426.657 289.398 427.012 289.159 427.459 289.159H473.392C473.729 289.159 474.028 289.298 474.131 289.501Z" fill="#007CFF"/>
<g opacity="0.300003">
<g opacity="0.300003">
<path opacity="0.300003" d="M474.131 289.501L476.176 293.561C476.335 293.875 475.961 294.197 475.437 294.197H427.868C427.459 294.197 427.12 293.997 427.095 293.739L426.685 289.679C426.657 289.398 427.012 289.159 427.459 289.159H473.392C473.729 289.159 474.028 289.298 474.131 289.501Z" fill="white"/>
</g>
</g>
<path d="M467.962 294.636H469.192C469.436 294.636 469.623 294.51 469.607 294.356L469.03 289.08C469.012 288.927 468.799 288.8 468.554 288.8H467.323C467.079 288.8 466.892 288.927 466.908 289.08L467.486 294.356C467.503 294.51 467.716 294.636 467.962 294.636Z" fill="#1A2E35"/>
<path d="M438.143 294.636H439.374C439.618 294.636 439.805 294.51 439.789 294.356L439.211 289.08C439.194 288.927 438.981 288.8 438.735 288.8H437.505C437.261 288.8 437.074 288.927 437.09 289.08L437.667 294.356C437.685 294.51 437.898 294.636 438.143 294.636Z" fill="#1A2E35"/>
</g>
<defs>
<clipPath id="clip0_2_2">
<rect width="666.667" height="666.667" fill="white"/>
</clipPath>
</defs>
</svg>
